<svg width="21" height="21" viewBox="0 0 21 21" fill="none" xmlns="http://www.w3.org/2000/svg">
<mask id="path-1-inside-1_929_257" fill="white">
<path d="M10.4852 2.50586C11.4653 2.50556 12.4197 2.81944 13.2083 3.40142C13.9968 3.9834 14.5781 4.80284 14.8667 5.73946C15.1553 6.67608 15.1361 7.68056 14.8119 8.60546C14.4877 9.53035 13.8755 10.327 13.0652 10.8784C14.4716 11.3942 15.6914 12.3191 16.5677 13.5341C17.4439 14.7491 17.9364 16.1986 17.9819 17.6959C17.9861 17.779 17.9738 17.8621 17.9454 17.9403C17.9171 18.0186 17.8735 18.0904 17.8171 18.1516C17.7606 18.2128 17.6926 18.262 17.6168 18.2965C17.5411 18.331 17.4592 18.3501 17.376 18.3525C17.2929 18.3549 17.21 18.3407 17.1324 18.3107C17.0548 18.2807 16.9839 18.2355 16.924 18.1778C16.8641 18.1201 16.8163 18.0509 16.7835 17.9745C16.7506 17.898 16.7334 17.8157 16.7327 17.7325C16.6831 16.1087 16.0032 14.5681 14.837 13.437C13.6709 12.306 12.1102 11.6734 10.4856 11.6734C8.8611 11.6734 7.30039 12.306 6.13425 13.437C4.96811 14.5681 4.28819 16.1087 4.23856 17.7325C4.23359 17.8983 4.16297 18.0553 4.04225 18.169C3.92152 18.2827 3.76057 18.3437 3.59481 18.3388C3.42905 18.3338 3.27206 18.2632 3.15836 18.1425C3.04467 18.0217 2.98359 17.8608 2.98856 17.695C3.03419 16.1979 3.52681 14.7486 4.40303 13.5338C5.27925 12.319 6.49898 11.3941 7.90523 10.8784C7.09497 10.327 6.4828 9.53035 6.15856 8.60546C5.83433 7.68056 5.81512 6.67608 6.10374 5.73946C6.39236 4.80284 6.97362 3.9834 7.7622 3.40142C8.55078 2.81944 9.50515 2.50556 10.4852 2.50586ZM7.1519 7.08919C7.1519 7.97325 7.50309 8.82109 8.12821 9.44622C8.75333 10.0713 9.60117 10.4225 10.4852 10.4225C11.3693 10.4225 12.2171 10.0713 12.8423 9.44622C13.4674 8.82109 13.8186 7.97325 13.8186 7.08919C13.8186 6.20514 13.4674 5.35729 12.8423 4.73217C12.2171 4.10705 11.3693 3.75586 10.4852 3.75586C9.60117 3.75586 8.75333 4.10705 8.12821 4.73217C7.50309 5.35729 7.1519 6.20514 7.1519 7.08919Z"/>
</mask>
<path d="M10.4852 2.50586C11.4653 2.50556 12.4197 2.81944 13.2083 3.40142C13.9968 3.9834 14.5781 4.80284 14.8667 5.73946C15.1553 6.67608 15.1361 7.68056 14.8119 8.60546C14.4877 9.53035 13.8755 10.327 13.0652 10.8784C14.4716 11.3942 15.6914 12.3191 16.5677 13.5341C17.4439 14.7491 17.9364 16.1986 17.9819 17.6959C17.9861 17.779 17.9738 17.8621 17.9454 17.9403C17.9171 18.0186 17.8735 18.0904 17.8171 18.1516C17.7606 18.2128 17.6926 18.262 17.6168 18.2965C17.5411 18.331 17.4592 18.3501 17.376 18.3525C17.2929 18.3549 17.21 18.3407 17.1324 18.3107C17.0548 18.2807 16.9839 18.2355 16.924 18.1778C16.8641 18.1201 16.8163 18.0509 16.7835 17.9745C16.7506 17.898 16.7334 17.8157 16.7327 17.7325C16.6831 16.1087 16.0032 14.5681 14.837 13.437C13.6709 12.306 12.1102 11.6734 10.4856 11.6734C8.8611 11.6734 7.30039 12.306 6.13425 13.437C4.96811 14.5681 4.28819 16.1087 4.23856 17.7325C4.23359 17.8983 4.16297 18.0553 4.04225 18.169C3.92152 18.2827 3.76057 18.3437 3.59481 18.3388C3.42905 18.3338 3.27206 18.2632 3.15836 18.1425C3.04467 18.0217 2.98359 17.8608 2.98856 17.695C3.03419 16.1979 3.52681 14.7486 4.40303 13.5338C5.27925 12.319 6.49898 11.3941 7.90523 10.8784C7.09497 10.327 6.4828 9.53035 6.15856 8.60546C5.83433 7.68056 5.81512 6.67608 6.10374 5.73946C6.39236 4.80284 6.97362 3.9834 7.7622 3.40142C8.55078 2.81944 9.50515 2.50556 10.4852 2.50586ZM7.1519 7.08919C7.1519 7.97325 7.50309 8.82109 8.12821 9.44622C8.75333 10.0713 9.60117 10.4225 10.4852 10.4225C11.3693 10.4225 12.2171 10.0713 12.8423 9.44622C13.4674 8.82109 13.8186 7.97325 13.8186 7.08919C13.8186 6.20514 13.4674 5.35729 12.8423 4.73217C12.2171 4.10705 11.3693 3.75586 10.4852 3.75586C9.60117 3.75586 8.75333 4.10705 8.12821 4.73217C7.50309 5.35729 7.1519 6.20514 7.1519 7.08919Z" fill="#FDF8ED"/>
<path d="M10.4852 2.50586L10.484 6.50586L10.4865 6.50586L10.4852 2.50586ZM13.0652 10.8784L10.8148 7.57145L4.37723 11.9523L11.6878 14.6337L13.0652 10.8784ZM17.9819 17.6959L13.9837 17.8172L13.985 17.8587L13.9871 17.9001L17.9819 17.6959ZM16.7327 17.7325L20.7326 17.7021L20.7323 17.6562L20.7309 17.6103L16.7327 17.7325ZM10.4856 11.6734V7.67344V11.6734ZM4.23856 17.7325L0.240429 17.6103L0.240362 17.6126L4.23856 17.7325ZM2.98856 17.695L-1.00958 17.5732L-1.00964 17.5751L2.98856 17.695ZM7.90523 10.8784L9.28261 14.6337L16.5933 11.9524L10.1556 7.57145L7.90523 10.8784ZM7.1519 7.08919H3.1519H7.1519ZM10.4852 10.4225V14.4225V10.4225ZM13.8186 7.08919H17.8186H13.8186ZM10.4852 3.75586V-0.24414V3.75586ZM10.4865 6.50586C10.6112 6.50582 10.7327 6.54577 10.833 6.61984L15.5835 0.182997C14.1067 -0.906898 12.3194 -1.4947 10.484 -1.49414L10.4865 6.50586ZM10.833 6.61984C10.9334 6.69391 11.0074 6.7982 11.0441 6.91741L18.6893 4.56151C18.1488 2.80748 17.0603 1.27289 15.5835 0.182997L10.833 6.61984ZM11.0441 6.91741C11.0808 7.03662 11.0784 7.16446 11.0371 7.28217L18.5867 9.92874C19.1939 8.19666 19.2299 6.31555 18.6893 4.56151L11.0441 6.91741ZM11.0371 7.28217C10.9959 7.39988 10.9179 7.50127 10.8148 7.57145L15.3156 14.1853C16.833 13.1527 17.9795 11.6608 18.5867 9.92874L11.0371 7.28217ZM11.6878 14.6337C12.3446 14.8746 12.9142 15.3065 13.3233 15.8739L19.812 11.1944C18.4687 9.33175 16.5987 7.91378 14.4426 7.12299L11.6878 14.6337ZM13.3233 15.8739C13.7325 16.4412 13.9625 17.1181 13.9837 17.8172L21.9801 17.5745C21.9104 15.279 21.1553 13.057 19.812 11.1944L13.3233 15.8739ZM13.9871 17.9001C13.9642 17.4513 14.0311 17.0024 14.1839 16.5798L21.707 19.3009C21.9164 18.7218 22.0081 18.1067 21.9767 17.4916L13.9871 17.9001ZM14.1839 16.5798C14.3368 16.1573 14.5725 15.7695 14.8772 15.4392L20.7569 20.864C21.1745 20.4114 21.4975 19.8799 21.707 19.3009L14.1839 16.5798ZM14.8772 15.4392C15.182 15.1089 15.5496 14.8428 15.9585 14.6565L19.2751 21.9366C19.8355 21.6813 20.3393 21.3166 20.7569 20.864L14.8772 15.4392ZM15.9585 14.6565C16.3674 14.4702 16.8095 14.3674 17.2587 14.3542L17.4934 22.3508C18.109 22.3327 18.7147 22.1919 19.2751 21.9366L15.9585 14.6565ZM17.2587 14.3542C17.7079 14.341 18.1552 14.4177 18.5744 14.5797L15.6905 22.0418C16.2649 22.2638 16.8778 22.3688 17.4934 22.3508L17.2587 14.3542ZM18.5744 14.5797C18.9935 14.7417 19.3761 14.9858 19.6997 15.2976L14.1483 21.058C14.5917 21.4853 15.1161 21.8198 15.6905 22.0418L18.5744 14.5797ZM19.6997 15.2976C20.0233 15.6095 20.2813 15.9828 20.4587 16.3957L13.1082 19.5533C13.3513 20.1191 13.7049 20.6307 14.1483 21.058L19.6997 15.2976ZM20.4587 16.3957C20.6361 16.8085 20.7292 17.2527 20.7326 17.7021L12.7328 17.763C12.7375 18.3788 12.8652 18.9874 13.1082 19.5533L20.4587 16.3957ZM20.7309 17.6103C20.6495 14.9473 19.5344 12.4206 17.6219 10.5657L12.0521 16.3083C12.472 16.7155 12.7167 17.2701 12.7346 17.8547L20.7309 17.6103ZM17.6219 10.5657C15.7095 8.71082 13.1499 7.67344 10.4856 7.67344V15.6734C11.0705 15.6734 11.6323 15.9012 12.0521 16.3083L17.6219 10.5657ZM10.4856 7.67344C7.82139 7.67344 5.26183 8.71082 3.34936 10.5657L8.91914 16.3083C9.33895 15.9012 9.90081 15.6734 10.4856 15.6734V7.67344ZM3.34936 10.5657C1.43689 12.4206 0.321814 14.9473 0.24043 17.6103L8.2367 17.8547C8.25456 17.2702 8.49933 16.7155 8.91914 16.3083L3.34936 10.5657ZM0.240362 17.6126C0.2672 16.718 0.648328 15.8706 1.29991 15.257L6.78459 21.0809C7.67762 20.2399 8.19998 19.0786 8.23676 17.8525L0.240362 17.6126ZM1.29991 15.257C1.95148 14.6434 2.82013 14.3137 3.71476 14.3406L3.47487 22.337C4.70102 22.3738 5.89156 21.922 6.78459 21.0809L1.29991 15.257ZM3.71476 14.3406C4.6094 14.3674 5.45672 14.7485 6.07033 15.4001L0.246393 20.8848C1.08739 21.7778 2.24871 22.3002 3.47487 22.337L3.71476 14.3406ZM6.07033 15.4001C6.68395 16.0517 7.0136 16.9203 6.98676 17.815L-1.00964 17.5751C-1.04642 18.8012 -0.594615 19.9918 0.246393 20.8848L6.07033 15.4001ZM6.98671 17.8169C7.00801 17.1177 7.23805 16.441 7.64721 15.8737L1.15885 11.1938C-0.184431 13.0562 -0.939639 15.278 -1.00958 17.5732L6.98671 17.8169ZM7.64721 15.8737C8.05637 15.3064 8.62594 14.8746 9.28261 14.6337L6.52785 7.12299C4.37201 7.91369 2.50213 9.33147 1.15885 11.1938L7.64721 15.8737ZM10.1556 7.57145C10.0525 7.50127 9.9746 7.39989 9.93334 7.28217L2.38379 9.92874C2.99099 11.6608 4.13742 13.1527 5.65482 14.1853L10.1556 7.57145ZM9.93334 7.28217C9.89207 7.16446 9.88963 7.03661 9.92636 6.91741L2.28112 4.56151C1.74061 6.31555 1.77659 8.19666 2.38379 9.92874L9.93334 7.28217ZM9.92636 6.91741C9.96309 6.7982 10.0371 6.69391 10.1374 6.61984L5.38696 0.182997C3.91016 1.27289 2.82163 2.80748 2.28112 4.56151L9.92636 6.91741ZM10.1374 6.61984C10.2378 6.54577 10.3593 6.50582 10.484 6.50586L10.4865 -1.49414C8.65103 -1.4947 6.86375 -0.906898 5.38696 0.182997L10.1374 6.61984ZM3.1519 7.08919C3.1519 9.03411 3.92451 10.8994 5.29978 12.2746L10.9566 6.61779C11.0817 6.74281 11.1519 6.91238 11.1519 7.08919H3.1519ZM5.29978 12.2746C6.67505 13.6499 8.54031 14.4225 10.4852 14.4225V6.42253C10.662 6.42253 10.8316 6.49276 10.9566 6.61779L5.29978 12.2746ZM10.4852 14.4225C12.4302 14.4225 14.2954 13.6499 15.6707 12.2746L10.0138 6.61779C10.1388 6.49276 10.3084 6.42253 10.4852 6.42253V14.4225ZM15.6707 12.2746C17.0459 10.8994 17.8186 9.03411 17.8186 7.08919H9.81856C9.81856 6.91238 9.8888 6.74281 10.0138 6.61779L15.6707 12.2746ZM17.8186 7.08919C17.8186 5.14427 17.0459 3.27901 15.6707 1.90374L10.0138 7.5606C9.8888 7.43557 9.81856 7.266 9.81856 7.08919H17.8186ZM15.6707 1.90374C14.2954 0.528476 12.4302 -0.24414 10.4852 -0.24414V7.75586C10.3084 7.75586 10.1388 7.68562 10.0138 7.5606L15.6707 1.90374ZM10.4852 -0.24414C8.54031 -0.24414 6.67505 0.528476 5.29978 1.90374L10.9566 7.5606C10.8316 7.68562 10.662 7.75586 10.4852 7.75586V-0.24414ZM5.29978 1.90374C3.92451 3.27901 3.1519 5.14427 3.1519 7.08919H11.1519C11.1519 7.266 11.0817 7.43557 10.9566 7.5606L5.29978 1.90374Z" fill="#FDF8ED" mask="url(#path-1-inside-1_929_257)"/>
</svg>
