<svg width="14" height="15" viewBox="0 0 14 15" fill="none" xmlns="http://www.w3.org/2000/svg">
<g clip-path="url(#clip0_929_325)">
<path d="M0.728225 14.3154C0.780647 14.3154 0.830885 14.3044 0.878939 14.2824C0.926992 14.2604 0.972862 14.2319 1.01655 14.1967L7.97558 7.88874C8.01927 7.84476 8.05422 7.79417 8.08043 7.73698C8.10664 7.6798 8.11975 7.62041 8.11975 7.55883C8.11975 7.49725 8.10664 7.43786 8.08043 7.38068C8.05422 7.32349 8.01927 7.27291 7.97558 7.22892L1.01655 0.921001C0.972862 0.877013 0.924808 0.844022 0.872386 0.822027C0.819964 0.800034 0.763173 0.789036 0.702014 0.789036C0.640855 0.789036 0.584064 0.800034 0.531642 0.822027C0.47922 0.844022 0.435535 0.877013 0.400587 0.921001C0.356901 0.956192 0.324138 1.00018 0.302295 1.05297C0.280453 1.10575 0.269531 1.16294 0.269531 1.22452C0.269531 1.2861 0.280453 1.34329 0.302295 1.39607C0.324138 1.44886 0.356901 1.49285 0.400587 1.52804L7.01888 7.55883L0.426798 13.55C0.383113 13.5852 0.350349 13.6314 0.328506 13.6886C0.306664 13.7458 0.295742 13.8008 0.295742 13.8536C0.295742 13.9151 0.306664 13.9723 0.328506 14.0251C0.350349 14.0779 0.383113 14.1263 0.426798 14.1703C0.461746 14.2143 0.505431 14.2494 0.557853 14.2758C0.610275 14.3022 0.667066 14.3154 0.728225 14.3154Z" fill="#233470"/>
</g>
<defs>
<clipPath id="clip0_929_325">
<rect width="13.407" height="14" fill="white" transform="matrix(1 0 0 -1 0.269531 14.5586)"/>
</clipPath>
</defs>
</svg>
